<?xml version="1.0" encoding="UTF-8"?>
<svg width="256px" height="256px" viewBox="0 0 256 256" version="1.1" xmlns="http://www.w3.org/2000/svg">
    <g stroke="none" fill="none">
        <circle fill="#FFEF5E" cx="128" cy="128" r="40"/>
        <g transform="translate(128, 128)" stroke="#FFFFFF" stroke-width="6">
            <!-- Petals -->
            <path d="M0,-90 Q20,-40 0,-30 Q-20,-40 0,-90" fill="#FFFFFF"/>
            <path d="M63.6,-63.6 Q63.6,-28.3 45,-21.2 Q36.8,-42.4 63.6,-63.6" fill="#FFFFFF"/>
            <path d="M90,0 Q40,-20 30,0 Q40,20 90,0" fill="#FFFFFF"/>
            <path d="M63.6,63.6 Q28.3,63.6 21.2,45 Q42.4,36.8 63.6,63.6" fill="#FFFFFF"/>
            <path d="M0,90 Q-20,40 0,30 Q20,40 0,90" fill="#FFFFFF"/>
            <path d="M-63.6,63.6 Q-63.6,28.3 -45,21.2 Q-36.8,42.4 -63.6,63.6" fill="#FFFFFF"/>
            <path d="M-90,0 Q-40,20 -30,0 Q-40,-20 -90,0" fill="#FFFFFF"/>
            <path d="M-63.6,-63.6 Q-28.3,-63.6 -21.2,-45 Q-42.4,-36.8 -63.6,-63.6" fill="#FFFFFF"/>
        </g>
    </g>
</svg>