<?xml version="1.0" encoding="UTF-8"?>
<svg width="400" height="240" viewBox="0 0 400 240" fill="none" xmlns="http://www.w3.org/2000/svg">
  <!-- Mountains in the background -->
  <path d="M0 180L100 80L200 180L300 60L400 180H0Z" fill="#E2E8F0"/>
  <path d="M50 180L150 100L250 180L350 80L400 180H50Z" fill="#CBD5E1"/>

  <!-- Airplane -->
  <g transform="translate(250,100) rotate(-15)">
    <path d="M0 20L60 0L80 20L60 40L0 20Z" fill="#A48CF6"/>
    <path d="M50 15L70 20L50 25L30 20L50 15Z" fill="#22C55E"/>
  </g>

  <!-- Suitcase -->
  <g transform="translate(100,140)">
    <rect x="0" y="0" width="60" height="40" rx="5" fill="#22C55E"/>
    <rect x="25" y="-10" width="10" height="15" rx="2" fill="#166534"/>
    <rect x="10" y="10" width="40" height="5" fill="#166534"/>
  </g>

  <!-- Location Pin -->
  <g transform="translate(180,120)">
    <path d="M0 0C0 20 20 40 20 40C20 40 40 20 40 0C40 -20 20 -20 20 0C20 -20 0 -20 0 0Z" fill="#EF4444"/>
    <circle cx="20" cy="0" r="8" fill="white"/>
  </g>
</svg>