<?xml version="1.0" encoding="UTF-8"?>
<svg width="800" height="400" viewBox="0 0 800 400" fill="none" xmlns="http://www.w3.org/2000/svg">
  <!-- Background -->
  <rect width="800" height="400" fill="#87CEEB"/>

  <!-- Clouds -->
  <path d="M600 100C600 100 620 80 650 80C680 80 700 100 700 100C700 100 720 80 750 80C780 80 800 100 800 100V120C800 120 780 140 750 140C720 140 700 120 700 120C700 120 680 140 650 140C620 140 600 120 600 120V100Z" fill="white"/>
  <path d="M100 150C100 150 120 130 150 130C180 130 200 150 200 150C200 150 220 130 250 130C280 130 300 150 300 150V170C300 170 280 190 250 190C220 190 200 170 200 170C200 170 180 190 150 190C120 190 100 170 100 170V150Z" fill="white"/>

  <!-- Map -->
  <path d="M300 250L500 200L600 300L400 350L300 250Z" fill="#90EE90"/>
  <path d="M400 350L500 300L600 350L500 400L400 350Z" fill="#FFD700"/>

  <!-- Location Pins -->
  <circle cx="350" cy="275" r="10" fill="#FF4444"/>
  <circle cx="450" cy="250" r="10" fill="#FF4444"/>
  <circle cx="550" cy="325" r="10" fill="#FF4444"/>

  <!-- Suitcase -->
  <rect x="50" y="200" width="200" height="250" rx="20" fill="#FF7F50"/>
  <rect x="70" y="220" width="160" height="40" fill="#8B4513"/>
  <rect x="70" y="300" width="160" height="40" fill="#8B4513"/>
  <rect x="120" y="180" width="60" height="20" fill="#000000"/>

  <!-- Camera -->
  <circle cx="150" cy="400" r="30" fill="#000000"/>
  <rect x="170" y="380" width="40" height="30" fill="#000000"/>

  <!-- Passport -->
  <rect x="50" y="450" width="80" height="120" fill="#000080"/>
  <circle cx="90" cy="500" r="20" fill="#FFD700"/>

  <!-- Compass -->
  <circle cx="200" cy="450" r="30" fill="#FFFFFF"/>
  <path d="M200 420L210 450L200 480L190 450L200 420Z" fill="#FF0000"/>

  <!-- Airplane -->
  <path d="M600 100L750 50L800 100L750 150L600 100Z" fill="#FFFFFF"/>
  <circle cx="650" cy="100" r="20" fill="#000000"/>
</svg>